# xmcd CD database file
#
# Track frame offsets:
#	150
#	12511
#	25548
#	41466
#	52963
#	64159
#	72019
#	81914
#	106764
#	120476
#	126937
#	147758
#	158512
#	173891
#	190842
#	200883
#	211309
#	221301
#	236441
#	247697
#	258533
#
# Disc length: 4047 seconds
#
# Revision: 0
# Processed by: cddbd v1.5.2PL0 Copyright (c) Steve Scherf et al.
# Submitted via: CDex 1.70beta2
#
DISCID=190fcd15
DTITLE=Desert Jazz Inn - Mars Lagoon
DYEAR=2006
DGENRE=Jazz
TTITLE0=Sitting In Front Of The Liquid ' Part II
TTITLE1=Bred'n'Water Motel
TTITLE2=Come Home
TTITLE3=Pretty Sad Girl
TTITLE4=The Contact That Never Happens
TTITLE5=Sunday
TTITLE6=Road To La Mancha
TTITLE7=That Mornin' Has Been Stolen
TTITLE8=No Sun On Sunday
TTITLE9=Hitchhiker To Hell
TTITLE10=Eyes Moonshine Blue
TTITLE11=Graveyard Behind The Backdoor
TTITLE12=Behind
TTITLE13=600 Miles To Next Town
TTITLE14=Dreamin Of The Lovely Rain
TTITLE15=Saloon
TTITLE16=The Pirat Who's Called Burnin' Head
TTITLE17=Big City Frustration
TTITLE18=A.D. Died Today
TTITLE19=After Party Mornin'
TTITLE20=The Bridge At The End Of The World
EXTD=YEAR: 2006
EXTT0=
EXTT1=
EXTT2=
EXTT3=
EXTT4=
EXTT5=
EXTT6=
EXTT7=
EXTT8=
EXTT9=
EXTT10=
EXTT11=
EXTT12=
EXTT13=
EXTT14=
EXTT15=
EXTT16=
EXTT17=
EXTT18=
EXTT19=
EXTT20=
PLAYORDER=
